<?xml version="1.0" standalone="no"?><!DOCTYPE svg PUBLIC "-//W3C//DTD SVG 1.1//EN" "http://www.w3.org/Graphics/SVG/1.1/DTD/svg11.dtd"><svg t="1664331750077" class="icon" viewBox="0 0 1024 1024" version="1.1" xmlns="http://www.w3.org/2000/svg" p-id="914" xmlns:xlink="http://www.w3.org/1999/xlink" width="200" height="200"><path d="M160 149.333333a10.666667 10.666667 0 0 0-10.666667 10.666667v42.666667a10.666667 10.666667 0 0 0 10.666667 10.666666h704a10.666667 10.666667 0 0 0 10.666667-10.666666v-42.666667a10.666667 10.666667 0 0 0-10.666667-10.666667h-704zM160 480a10.666667 10.666667 0 0 0-10.666667 10.666667v42.666666a10.666667 10.666667 0 0 0 10.666667 10.666667h490.666667a10.666667 10.666667 0 0 0 10.666666-10.666667v-42.666666a10.666667 10.666667 0 0 0-10.666666-10.666667h-490.666667zM149.333333 821.333333a10.666667 10.666667 0 0 1 10.666667-10.666666h704a10.666667 10.666667 0 0 1 10.666667 10.666666v42.666667a10.666667 10.666667 0 0 1-10.666667 10.666667h-704a10.666667 10.666667 0 0 1-10.666667-10.666667v-42.666667zM734.869333 495.637333c-12.714667 7.914667-12.714667 24.810667 0 32.725334l105.045334 65.386666c14.677333 9.152 34.752-0.298667 34.752-16.341333v-130.816c0-16.042667-20.053333-25.493333-34.773334-16.341333l-105.024 65.386666z" fill="#313233" p-id="915"></path></svg>