<?xml version="1.0" standalone="no"?><!DOCTYPE svg PUBLIC "-//W3C//DTD SVG 1.1//EN" "http://www.w3.org/Graphics/SVG/1.1/DTD/svg11.dtd"><svg t="1661613336606" class="icon" viewBox="0 0 1024 1024" version="1.1" xmlns="http://www.w3.org/2000/svg" p-id="17393" xmlns:xlink="http://www.w3.org/1999/xlink" width="200" height="200"><path d="M780.190476 365.714286c0-34.133333-9.752381-73.142857-24.380952-102.4l39.009524-19.504762h4.87619c39.009524-19.504762 58.514286-43.885714 58.514286-73.142857C858.209524 48.761905 560.761905 48.761905 526.628571 48.761905S190.171429 43.885714 190.171429 165.790476c0 29.257143 14.628571 48.761905 48.761904 68.266667 4.87619 0 4.87619 4.87619 9.752381 4.87619l43.885715 24.380953c-14.628571 29.257143-19.504762 68.266667-19.504762 102.4 0 73.142857 34.133333 141.409524 87.771428 190.171428-170.666667 68.266667-292.571429 234.057143-292.571428 429.104762h97.523809c0-199.92381 160.914286-365.714286 365.714286-365.714286 136.533333 0 248.685714-112.152381 248.685714-253.561904z m-253.561905-248.685715c136.533333 0 224.304762 29.257143 248.685715 43.885715 0 0-4.87619 0-4.876191 4.87619h-487.619047l-4.876191-4.87619c24.380952-14.628571 112.152381-43.885714 248.685714-43.885715zM619.27619 243.809524l-92.647619 48.761905-97.523809-48.761905h190.171428z m-112.15238 126.780952c4.87619 4.87619 9.752381 4.87619 19.504761 4.876191 4.87619 0 14.628571 0 19.504762-4.876191l126.780953-63.390476c4.87619 19.504762 9.752381 39.009524 9.752381 58.514286 0 87.771429-68.266667 156.038095-156.038096 156.038095S370.590476 453.485714 370.590476 365.714286c0-19.504762 4.87619-39.009524 9.752381-58.514286l126.780953 63.390476zM700.269714 985.819429l0.341334-97.52381 258.438095 0.828952-0.341333 97.52381z" p-id="17394"></path><path d="M699.196952 669.93981l0.292572-97.52381 258.438095 0.877714-0.292571 97.52381zM588.751238 825.880381l0.24381-97.52381 370.590476 0.877715-0.24381 97.523809z" p-id="17395"></path></svg>